<svg width="126" height="55" viewBox="10 0 126 55" fill="none" xmlns="http://www.w3.org/2000/svg" preserveAspectRatio="none">
<g filter="url(#filter0_d_13_7)">
<path d="M39.3741 31.5767H35V26.7619C35 24.7568 36.2346 19 43.4517 19C51.0137 19 52 23.9697 52 26.7619C52 29.5541 51.2402 35.3108 43.4517 35.3108V31.5767C47.4413 31.5767 47.9162 29.4581 47.9162 26.7619C47.9162 24.0656 45.257 23.1508 43.4517 23.1508C41.0782 23.1508 39.3741 24.9486 39.3741 26.7619V31.5767Z" fill="white"/>
</g>
<rect x="35" y="35.897" width="4.59459" height="4.36486" fill="#32CB82"/>
<g filter="url(#filter1_f_13_7)">
<circle cx="37.4122" cy="38.0795" r="2.18243" fill="#32CB82" fill-opacity="0.5"/>
</g>
<path d="M62.7656 36H60.9688C60.9167 36 60.8906 35.974 60.8906 35.9219L60.9219 24.9297C60.9219 24.888 60.9427 24.8672 60.9844 24.8672H64.0625C65.0417 24.8672 65.8151 25.1667 66.3828 25.7656C66.9557 26.3594 67.2422 27.1693 67.2422 28.1953C67.2422 28.9453 67.0938 29.599 66.7969 30.1562C66.4948 30.7083 66.1042 31.1354 65.625 31.4375C65.1458 31.7396 64.625 31.8906 64.0625 31.8906H62.8438V35.9219C62.8438 35.974 62.8177 36 62.7656 36ZM64.0625 26.7656L62.8438 26.7812V29.9531H64.0625C64.401 29.9531 64.6953 29.7917 64.9453 29.4688C65.1953 29.1406 65.3203 28.7161 65.3203 28.1953C65.3203 27.7786 65.2083 27.4375 64.9844 27.1719C64.7604 26.901 64.4531 26.7656 64.0625 26.7656ZM66.8672 35.9219L68.8516 24.9297C68.862 24.888 68.888 24.8672 68.9297 24.8672H71.25C71.2917 24.8672 71.3177 24.888 71.3281 24.9297L73.2344 35.9219C73.2396 35.974 73.2188 36 73.1719 36H71.3984C71.3464 36 71.3177 35.974 71.3125 35.9219L71.1406 34.75H68.9609L68.7891 35.9219C68.7839 35.974 68.7578 36 68.7109 36H66.9297C66.888 36 66.8672 35.974 66.8672 35.9219ZM70 28.5469L69.2812 33.0391H70.8203L70.1641 28.5469L70.0703 27.9531L70 28.5469ZM76.1094 36H74.2969C74.2552 36 74.2344 35.974 74.2344 35.9219L74.2656 24.9297C74.2656 24.888 74.2865 24.8672 74.3281 24.8672H77.5625C78.1406 24.8672 78.6719 25.0078 79.1562 25.2891C79.6406 25.5703 80.026 25.9479 80.3125 26.4219C80.6042 26.8958 80.75 27.4323 80.75 28.0312C80.75 28.4219 80.6901 28.776 80.5703 29.0938C80.4505 29.4115 80.3099 29.6797 80.1484 29.8984C79.9922 30.1172 79.849 30.2786 79.7188 30.3828C80.2969 31.0234 80.5859 31.776 80.5859 32.6406L80.6016 35.9219C80.6016 35.974 80.5755 36 80.5234 36H78.7109C78.6693 36 78.6484 35.9844 78.6484 35.9531V32.6406C78.6484 32.2552 78.513 31.9219 78.2422 31.6406C77.9714 31.3594 77.638 31.2188 77.2422 31.2188H76.1875L76.1719 35.9219C76.1719 35.974 76.151 36 76.1094 36ZM77.5625 26.7812H76.1875V29.2969H77.5625C77.8906 29.2969 78.1823 29.1745 78.4375 28.9297C78.6979 28.6849 78.8281 28.3854 78.8281 28.0312C78.8281 27.6927 78.7031 27.401 78.4531 27.1562C78.2031 26.9062 77.9062 26.7812 77.5625 26.7812ZM83.8281 36H82.0156C81.974 36 81.9531 35.974 81.9531 35.9219L81.9844 24.9453C81.9844 24.8932 82.0052 24.8672 82.0469 24.8672H83.8438C83.8854 24.8672 83.9062 24.8932 83.9062 24.9453V28.7344L86.4141 24.9297C86.4557 24.888 86.4948 24.8672 86.5312 24.8672H88.3672C88.4141 24.8672 88.4245 24.888 88.3984 24.9297L85.6328 29.3438L88.7344 35.9375C88.7604 35.9792 88.7344 36 88.6562 36H86.7031C86.651 36 86.6198 35.9792 86.6094 35.9375L84.4453 31.2344L83.8906 32.1094V35.9219C83.8906 35.974 83.8698 36 83.8281 36ZM92.1719 36.1562C91.6042 36.1562 91.0807 36.0104 90.6016 35.7188C90.1276 35.4271 89.7474 35.0391 89.4609 34.5547C89.1797 34.0651 89.0391 33.5286 89.0391 32.9453V32.2109C89.0391 32.1536 89.0651 32.125 89.1172 32.125H90.9141C90.9557 32.125 90.9766 32.1536 90.9766 32.2109V32.9453C90.9766 33.2943 91.0938 33.5964 91.3281 33.8516C91.5625 34.1016 91.8438 34.2266 92.1719 34.2266C92.5052 34.2266 92.7891 34.099 93.0234 33.8438C93.2578 33.5833 93.375 33.2839 93.375 32.9453C93.375 32.5547 93.1198 32.2135 92.6094 31.9219C92.526 31.8698 92.4167 31.8073 92.2812 31.7344C92.151 31.6562 91.9948 31.5677 91.8125 31.4688C91.6302 31.3698 91.4531 31.2734 91.2812 31.1797C91.1094 31.0807 90.9427 30.987 90.7812 30.8984C90.1979 30.5547 89.763 30.125 89.4766 29.6094C89.1953 29.0885 89.0547 28.5052 89.0547 27.8594C89.0547 27.2656 89.2005 26.7292 89.4922 26.25C89.7839 25.776 90.1641 25.401 90.6328 25.125C91.1068 24.8438 91.6198 24.7031 92.1719 24.7031C92.7396 24.7031 93.2604 24.8438 93.7344 25.125C94.2083 25.4115 94.5859 25.7917 94.8672 26.2656C95.1536 26.7396 95.2969 27.2708 95.2969 27.8594V29.1719C95.2969 29.2135 95.276 29.2344 95.2344 29.2344H93.4375C93.3958 29.2344 93.375 29.2135 93.375 29.1719L93.3594 27.8594C93.3594 27.4844 93.2422 27.1797 93.0078 26.9453C92.7734 26.7109 92.4948 26.5938 92.1719 26.5938C91.8438 26.5938 91.5625 26.7188 91.3281 26.9688C91.0938 27.2188 90.9766 27.5156 90.9766 27.8594C90.9766 28.2083 91.0495 28.5 91.1953 28.7344C91.3464 28.9688 91.6198 29.1927 92.0156 29.4062C92.0573 29.4271 92.1536 29.4792 92.3047 29.5625C92.4557 29.6458 92.6224 29.7396 92.8047 29.8438C92.9922 29.9427 93.1615 30.0339 93.3125 30.1172C93.4635 30.1953 93.5547 30.2422 93.5859 30.2578C94.1172 30.5547 94.5365 30.9193 94.8438 31.3516C95.1562 31.7839 95.3125 32.3151 95.3125 32.9453C95.3125 33.5547 95.1719 34.1016 94.8906 34.5859C94.6042 35.0703 94.224 35.4531 93.75 35.7344C93.276 36.0156 92.75 36.1562 92.1719 36.1562ZM95.5547 35.9219L97.5391 24.9297C97.5495 24.888 97.5755 24.8672 97.6172 24.8672H99.9375C99.9792 24.8672 100.005 24.888 100.016 24.9297L101.922 35.9219C101.927 35.974 101.906 36 101.859 36H100.086C100.034 36 100.005 35.974 100 35.9219L99.8281 34.75H97.6484L97.4766 35.9219C97.4714 35.974 97.4453 36 97.3984 36H95.6172C95.5755 36 95.5547 35.974 95.5547 35.9219ZM98.6875 28.5469L97.9688 33.0391H99.5078L98.8516 28.5469L98.7578 27.9531L98.6875 28.5469ZM104.797 36H103C102.948 36 102.922 35.974 102.922 35.9219L102.953 24.9297C102.953 24.888 102.974 24.8672 103.016 24.8672H108.141C108.193 24.8672 108.219 24.888 108.219 24.9297V26.7344C108.219 26.776 108.198 26.7969 108.156 26.7969H104.875V29.2812H108.156C108.198 29.2812 108.219 29.3073 108.219 29.3594L108.234 31.1719C108.234 31.2135 108.208 31.2344 108.156 31.2344H104.875V35.9219C104.875 35.974 104.849 36 104.797 36ZM114.891 36H109.719C109.677 36 109.656 35.974 109.656 35.9219L109.672 24.9297C109.672 24.888 109.693 24.8672 109.734 24.8672H114.875C114.917 24.8672 114.938 24.8932 114.938 24.9453V26.7344C114.938 26.776 114.917 26.7969 114.875 26.7969H111.594V29.2969H114.875C114.917 29.2969 114.938 29.3177 114.938 29.3594L114.953 31.1719C114.953 31.2135 114.932 31.2344 114.891 31.2344H111.594V34.0312H114.891C114.932 34.0312 114.953 34.0573 114.953 34.1094V35.9375C114.953 35.9792 114.932 36 114.891 36Z" fill="white"/>
<defs>
<filter id="filter0_d_13_7" x="31" y="19" width="25" height="24.3108" filterUnits="userSpaceOnUse" color-interpolation-filters="sRGB">
<feFlood flood-opacity="0" result="BackgroundImageFix"/>
<feColorMatrix in="SourceAlpha" type="matrix" values="0 0 0 0 0 0 0 0 0 0 0 0 0 0 0 0 0 0 127 0" result="hardAlpha"/>
<feOffset dy="4"/>
<feGaussianBlur stdDeviation="2"/>
<feComposite in2="hardAlpha" operator="out"/>
<feColorMatrix type="matrix" values="0 0 0 0 0 0 0 0 0 0 0 0 0 0 0 0 0 0 0.25 0"/>
<feBlend mode="normal" in2="BackgroundImageFix" result="effect1_dropShadow_13_7"/>
<feBlend mode="normal" in="SourceGraphic" in2="effect1_dropShadow_13_7" result="shape"/>
</filter>
<filter id="filter1_f_13_7" x="0.229721" y="0.897034" width="74.3649" height="74.3649" filterUnits="userSpaceOnUse" color-interpolation-filters="sRGB">
<feFlood flood-opacity="0" result="BackgroundImageFix"/>
<feBlend mode="normal" in="SourceGraphic" in2="BackgroundImageFix" result="shape"/>
<feGaussianBlur stdDeviation="17.5" result="effect1_foregroundBlur_13_7"/>
</filter>
</defs>
</svg>
